<svg width="1024" height="1024" viewBox="0 0 1024 1024" fill="none" xmlns="http://www.w3.org/2000/svg">
<path fill-rule="evenodd" clip-rule="evenodd" d="M186.517 754.993C186.517 780.45 165.881 801.086 140.424 801.086C137.252 801.086 134.154 800.766 131.161 800.155C144.022 846.648 176.253 885.096 218.622 906.268C218.539 905.882 218.46 905.495 218.384 905.107C217.637 901.277 217.245 897.32 217.245 893.272C217.245 859.33 244.761 831.815 278.702 831.815C312.644 831.815 340.159 859.33 340.159 893.272C340.159 904.465 337.167 914.96 331.938 923.999H752.797L753.827 923.996L754.992 924C793.845 924 829.636 910.889 858.182 888.85C857.691 888.618 857.205 888.377 856.724 888.127C841.925 880.456 831.813 864.999 831.813 847.179C831.813 821.723 852.449 801.086 877.905 801.086C891.637 801.086 903.967 807.091 912.411 816.618C919.891 797.525 923.998 776.739 923.998 754.993V245.351C919.192 247.05 914.021 247.974 908.634 247.974C883.177 247.974 862.541 227.338 862.541 201.881C862.541 176.425 883.177 155.789 908.634 155.789L908.437 155.52C894.409 137.014 872.189 125.06 847.177 125.06C804.75 125.06 770.356 159.454 770.356 201.881V317.653C779.395 312.424 789.891 309.431 801.085 309.431C835.026 309.431 862.541 336.946 862.541 370.888C862.541 404.829 835.026 432.345 801.085 432.345C789.891 432.345 779.395 429.352 770.356 424.123V588.61C775.162 586.911 780.333 585.987 785.72 585.987C811.176 585.987 831.813 606.623 831.813 632.08C831.813 657.536 811.176 678.172 785.72 678.172C780.333 678.172 775.162 677.248 770.356 675.55V739.629C770.356 756.6 756.598 770.358 739.627 770.358L706.276 770.357C707.975 775.163 708.899 780.334 708.899 785.722C708.899 811.178 688.263 831.815 662.807 831.815C637.35 831.815 616.714 811.178 616.714 785.722C616.714 780.335 617.639 775.163 619.337 770.357L485.579 770.357C474.953 788.727 455.092 801.086 432.344 801.086C409.596 801.086 389.735 788.727 379.109 770.357L309.431 770.358C292.46 770.358 278.702 756.6 278.702 739.629V369.351C273.738 370.359 268.6 370.888 263.338 370.888C220.911 370.888 186.517 336.494 186.517 294.067C186.517 251.64 220.911 217.246 263.338 217.246C268.6 217.246 273.738 217.775 278.702 218.782V201.881C278.702 164.709 252.301 133.704 217.227 126.593C216.413 159.826 189.218 186.517 155.788 186.517C145.876 186.517 136.512 184.17 128.221 180.002C126.164 186.936 125.06 194.28 125.06 201.881V711.523C129.866 709.825 135.037 708.901 140.424 708.901C165.881 708.901 186.517 729.537 186.517 754.993ZM186.517 463.073C203.488 463.073 217.245 449.316 217.245 432.345C217.245 415.374 203.488 401.616 186.517 401.616C169.546 401.616 155.788 415.374 155.788 432.345C155.788 449.316 169.546 463.073 186.517 463.073ZM201.881 616.715C227.337 616.715 247.974 596.079 247.974 570.623C247.974 545.166 227.337 524.53 201.881 524.53C176.425 524.53 155.788 545.166 155.788 570.623C155.788 596.079 176.425 616.715 201.881 616.715ZM524.529 893.272C541.5 893.272 555.258 879.514 555.258 862.543C555.258 845.572 541.5 831.815 524.529 831.815C507.558 831.815 493.801 845.572 493.801 862.543C493.801 879.514 507.558 893.272 524.529 893.272ZM862.541 555.259C879.512 555.259 893.27 541.501 893.27 524.53C893.27 507.559 879.512 493.802 862.541 493.802C845.57 493.802 831.813 507.559 831.813 524.53C831.813 541.501 845.57 555.259 862.541 555.259Z" fill="url(#paint0_linear_734_1901)"/>
<path d="M103.16 154.942C101.104 161.876 100 169.22 100 176.821V686.463L125.06 711.523V201.881C125.06 194.28 126.164 186.936 128.221 180.002L103.16 154.942Z" fill="url(#paint1_linear_734_1901)"/>
<path d="M103.16 154.942C101.104 161.876 100 169.22 100 176.821V686.463L125.06 711.523V201.881C125.06 194.28 126.164 186.936 128.221 180.002L103.16 154.942Z" fill="url(#paint2_linear_734_1901)"/>
<path d="M745.296 399.063V563.55L770.356 588.61V424.123L745.296 399.063Z" fill="url(#paint3_linear_734_1901)"/>
<path d="M745.296 399.063V563.55L770.356 588.61V424.123L745.296 399.063Z" fill="url(#paint4_linear_734_1901)"/>
<path d="M354.049 745.297L284.371 745.298C282.589 745.298 280.843 745.146 279.145 744.855C281.626 759.337 294.241 770.358 309.431 770.358L379.109 770.357L354.049 745.297Z" fill="url(#paint5_linear_734_1901)"/>
<path d="M354.049 745.297L284.371 745.298C282.589 745.298 280.843 745.146 279.145 744.855C281.626 759.337 294.241 770.358 309.431 770.358L379.109 770.357L354.049 745.297Z" fill="url(#paint6_linear_734_1901)"/>
<path d="M745.296 714.569C745.296 731.54 731.538 745.298 714.567 745.298L681.216 745.297L706.276 770.357L739.627 770.358C756.598 770.358 770.356 756.6 770.356 739.629V675.55L745.296 650.489V714.569Z" fill="url(#paint7_linear_734_1901)"/>
<path d="M745.296 714.569C745.296 731.54 731.538 745.298 714.567 745.298L681.216 745.297L706.276 770.357L739.627 770.358C756.598 770.358 770.356 756.6 770.356 739.629V675.55L745.296 650.489V714.569Z" fill="url(#paint8_linear_734_1901)"/>
<path d="M594.277 745.297L460.519 745.297L485.579 770.357L619.337 770.357L594.277 745.297Z" fill="url(#paint9_linear_734_1901)"/>
<path d="M594.277 745.297L460.519 745.297L485.579 770.357L619.337 770.357L594.277 745.297Z" fill="url(#paint10_linear_734_1901)"/>
<path d="M745.296 176.821C745.296 134.394 779.69 100 822.117 100C847.129 100 869.35 111.954 883.377 130.46L883.574 130.728L893.247 140.402C888.332 136.712 882.96 133.599 877.231 131.161C868 127.233 857.842 125.06 847.177 125.06C804.75 125.06 770.356 159.454 770.356 201.881V317.653L745.296 292.593V176.821Z" fill="url(#paint11_linear_734_1901)"/>
<path d="M745.296 176.821C745.296 134.394 779.69 100 822.117 100C847.129 100 869.35 111.954 883.377 130.46L883.574 130.728L893.247 140.402C888.332 136.712 882.96 133.599 877.231 131.161C868 127.233 857.842 125.06 847.177 125.06C804.75 125.06 770.356 159.454 770.356 201.881V317.653L745.296 292.593V176.821Z" fill="url(#paint12_linear_734_1901)"/>
<path d="M130.729 161.457C120.817 161.457 111.451 159.11 103.16 154.942L128.221 180.002C136.512 184.17 145.876 186.517 155.788 186.517C189.218 186.517 216.413 159.826 217.227 126.593L192.167 101.533C191.354 134.766 164.158 161.457 130.729 161.457Z" fill="url(#paint13_linear_734_1901)"/>
<path d="M130.729 161.457C120.817 161.457 111.451 159.11 103.16 154.942L128.221 180.002C136.512 184.17 145.876 186.517 155.788 186.517C189.218 186.517 216.413 159.826 217.227 126.593L192.167 101.533C191.354 134.766 164.158 161.457 130.729 161.457Z" fill="url(#paint14_linear_734_1901)"/>
<path d="M253.643 344.291C248.678 345.299 243.54 345.828 238.279 345.828C223.485 345.828 209.668 341.646 197.945 334.4C198.492 335.285 199.056 336.158 199.637 337.018C211.733 354.922 231.177 367.452 253.643 370.282C256.818 370.682 260.054 370.888 263.338 370.888C268.6 370.888 273.738 370.359 278.702 369.351L253.643 344.291Z" fill="url(#paint15_linear_734_1901)"/>
<path d="M253.643 344.291C248.678 345.299 243.54 345.828 238.279 345.828C223.485 345.828 209.668 341.646 197.945 334.4C198.492 335.285 199.056 336.158 199.637 337.018C211.733 354.922 231.177 367.452 253.643 370.282C256.818 370.682 260.054 370.888 263.338 370.888C268.6 370.888 273.738 370.359 278.702 369.351L253.643 344.291Z" fill="url(#paint16_linear_734_1901)"/>
<path d="M192.186 407.285C192.186 424.255 178.428 438.013 161.457 438.013C159.676 438.013 157.93 437.862 156.232 437.571C158.713 452.052 171.328 463.073 186.517 463.073C203.488 463.073 217.245 449.316 217.245 432.345C217.245 417.155 206.225 404.54 191.743 402.059C192.034 403.757 192.186 405.503 192.186 407.285Z" fill="url(#paint17_linear_734_1901)"/>
<path d="M192.186 407.285C192.186 424.255 178.428 438.013 161.457 438.013C159.676 438.013 157.93 437.862 156.232 437.571C158.713 452.052 171.328 463.073 186.517 463.073C203.488 463.073 217.245 449.316 217.245 432.345C217.245 417.155 206.225 404.54 191.743 402.059C192.034 403.757 192.186 405.503 192.186 407.285Z" fill="url(#paint18_linear_734_1901)"/>
<path d="M222.914 545.563C222.914 571.019 202.278 591.655 176.822 591.655C170.601 591.655 164.669 590.423 159.255 588.189C166.162 604.932 182.645 616.715 201.881 616.715C227.337 616.715 247.974 596.079 247.974 570.623C247.974 551.531 236.366 535.149 219.823 528.152C219.699 528.1 219.574 528.047 219.449 527.996C221.682 533.41 222.914 539.342 222.914 545.563Z" fill="url(#paint19_linear_734_1901)"/>
<path d="M222.914 545.563C222.914 571.019 202.278 591.655 176.822 591.655C170.601 591.655 164.669 590.423 159.255 588.189C166.162 604.932 182.645 616.715 201.881 616.715C227.337 616.715 247.974 596.079 247.974 570.623C247.974 551.531 236.366 535.149 219.823 528.152C219.699 528.1 219.574 528.047 219.449 527.996C221.682 533.41 222.914 539.342 222.914 545.563Z" fill="url(#paint20_linear_734_1901)"/>
<path d="M315.1 868.211C315.1 879.405 312.107 889.899 306.878 898.939L331.938 923.999C336.274 916.503 339.073 908.005 339.902 898.939C340.072 897.073 340.159 895.182 340.159 893.272C340.159 869.854 327.062 849.495 307.793 839.122C312.454 847.781 315.1 857.687 315.1 868.211Z" fill="url(#paint21_linear_734_1901)"/>
<path d="M315.1 868.211C315.1 879.405 312.107 889.899 306.878 898.939L331.938 923.999C336.274 916.503 339.073 908.005 339.902 898.939C340.072 897.073 340.159 895.182 340.159 893.272C340.159 869.854 327.062 849.495 307.793 839.122C312.454 847.781 315.1 857.687 315.1 868.211Z" fill="url(#paint22_linear_734_1901)"/>
<path d="M161.457 729.933C161.457 755.39 140.821 776.026 115.365 776.026C112.192 776.026 109.094 775.705 106.102 775.095L131.161 800.155C134.154 800.766 137.252 801.086 140.424 801.086C165.881 801.086 186.517 780.45 186.517 754.993C186.517 735.758 174.734 719.274 157.992 712.366C160.225 717.78 161.457 723.713 161.457 729.933Z" fill="url(#paint23_linear_734_1901)"/>
<path d="M161.457 729.933C161.457 755.39 140.821 776.026 115.365 776.026C112.192 776.026 109.094 775.705 106.102 775.095L131.161 800.155C134.154 800.766 137.252 801.086 140.424 801.086C165.881 801.086 186.517 780.45 186.517 754.993C186.517 735.758 174.734 719.274 157.992 712.366C160.225 717.78 161.457 723.713 161.457 729.933Z" fill="url(#paint24_linear_734_1901)"/>
<path d="M530.199 837.483C530.199 854.454 516.441 868.211 499.47 868.211C497.689 868.211 495.943 868.06 494.244 867.769C496.725 882.25 509.34 893.272 524.529 893.272C541.5 893.272 555.258 879.514 555.258 862.543C555.258 847.694 544.726 835.304 530.723 832.439C530.403 832.373 530.08 832.313 529.756 832.257C530.047 833.955 530.199 835.701 530.199 837.483Z" fill="url(#paint25_linear_734_1901)"/>
<path d="M530.199 837.483C530.199 854.454 516.441 868.211 499.47 868.211C497.689 868.211 495.943 868.06 494.244 867.769C496.725 882.25 509.34 893.272 524.529 893.272C541.5 893.272 555.258 879.514 555.258 862.543C555.258 847.694 544.726 835.304 530.723 832.439C530.403 832.373 530.08 832.313 529.756 832.257C530.047 833.955 530.199 835.701 530.199 837.483Z" fill="url(#paint26_linear_734_1901)"/>
<path d="M898.94 220.291C894.134 221.99 888.963 222.914 883.576 222.914C877.355 222.914 871.423 221.682 866.009 219.448C871.722 233.296 883.986 243.751 898.94 246.952C902.066 247.622 905.31 247.974 908.636 247.974C914.023 247.974 919.194 247.05 924 245.351L898.94 220.291Z" fill="url(#paint27_linear_734_1901)"/>
<path d="M898.94 220.291C894.134 221.99 888.963 222.914 883.576 222.914C877.355 222.914 871.423 221.682 866.009 219.448C871.722 233.296 883.986 243.751 898.94 246.952C902.066 247.622 905.31 247.974 908.636 247.974C914.023 247.974 919.194 247.05 924 245.351L898.94 220.291Z" fill="url(#paint28_linear_734_1901)"/>
<path d="M837.483 345.828C837.483 379.769 809.968 407.285 776.026 407.285C764.832 407.285 754.337 404.292 745.298 399.063L770.358 424.123C779.397 429.352 789.891 432.345 801.085 432.345C835.026 432.345 862.543 404.829 862.543 370.888C862.543 347.47 849.446 327.112 830.177 316.738C834.838 325.398 837.483 335.304 837.483 345.828Z" fill="url(#paint29_linear_734_1901)"/>
<path d="M837.483 345.828C837.483 379.769 809.968 407.285 776.026 407.285C764.832 407.285 754.337 404.292 745.298 399.063L770.358 424.123C779.397 429.352 789.891 432.345 801.085 432.345C835.026 432.345 862.543 404.829 862.543 370.888C862.543 347.47 849.446 327.112 830.177 316.738C834.838 325.398 837.483 335.304 837.483 345.828Z" fill="url(#paint30_linear_734_1901)"/>
<path d="M868.212 499.47C868.212 516.441 854.454 530.198 837.483 530.198C835.702 530.198 833.956 530.047 832.257 529.756C834.738 544.238 847.354 555.258 862.543 555.258C879.514 555.258 893.272 541.501 893.272 524.53C893.272 509.341 882.251 496.725 867.769 494.244C868.06 495.943 868.212 497.689 868.212 499.47Z" fill="url(#paint31_linear_734_1901)"/>
<path d="M868.212 499.47C868.212 516.441 854.454 530.198 837.483 530.198C835.702 530.198 833.956 530.047 832.257 529.756C834.738 544.238 847.354 555.258 862.543 555.258C879.514 555.258 893.272 541.501 893.272 524.53C893.272 509.341 882.251 496.725 867.769 494.244C868.06 495.943 868.212 497.689 868.212 499.47Z" fill="url(#paint32_linear_734_1901)"/>
<path d="M806.755 607.02C806.755 632.476 786.118 653.112 760.662 653.112C755.275 653.112 750.103 652.188 745.298 650.489L770.358 675.55C775.163 677.248 780.335 678.172 785.722 678.172C811.178 678.172 831.815 657.536 831.815 632.08C831.815 612.844 820.031 596.36 803.289 589.453C805.522 594.867 806.755 600.799 806.755 607.02Z" fill="url(#paint33_linear_734_1901)"/>
<path d="M806.755 607.02C806.755 632.476 786.118 653.112 760.662 653.112C755.275 653.112 750.103 652.188 745.298 650.489L770.358 675.55C775.163 677.248 780.335 678.172 785.722 678.172C811.178 678.172 831.815 657.536 831.815 632.08C831.815 612.844 820.031 596.36 803.289 589.453C805.522 594.867 806.755 600.799 806.755 607.02Z" fill="url(#paint34_linear_734_1901)"/>
<path d="M683.841 760.662C683.841 786.118 663.204 806.754 637.748 806.754C631.528 806.754 625.595 805.522 620.181 803.289C620.233 803.414 620.285 803.539 620.338 803.663C627.335 820.207 643.714 831.815 662.807 831.815C688.263 831.815 708.899 811.178 708.899 785.722C708.899 780.334 707.975 775.163 706.276 770.357L681.216 745.297C682.915 750.103 683.841 755.274 683.841 760.662Z" fill="url(#paint35_linear_734_1901)"/>
<path d="M683.841 760.662C683.841 786.118 663.204 806.754 637.748 806.754C631.528 806.754 625.595 805.522 620.181 803.289C620.233 803.414 620.285 803.539 620.338 803.663C627.335 820.207 643.714 831.815 662.807 831.815C688.263 831.815 708.899 811.178 708.899 785.722C708.899 780.334 707.975 775.163 706.276 770.357L681.216 745.297C682.915 750.103 683.841 755.274 683.841 760.662Z" fill="url(#paint36_linear_734_1901)"/>
<path d="M460.519 745.297C449.893 763.667 430.033 776.026 407.285 776.026C396.091 776.026 385.597 773.033 376.557 767.805L379.109 770.357C389.735 788.727 409.596 801.086 432.344 801.086C455.092 801.086 474.953 788.727 485.579 770.357L460.519 745.297Z" fill="url(#paint37_linear_734_1901)"/>
<path d="M460.519 745.297C449.893 763.667 430.033 776.026 407.285 776.026C396.091 776.026 385.597 773.033 376.557 767.805L379.109 770.357C389.735 788.727 409.596 801.086 432.344 801.086C455.092 801.086 474.953 788.727 485.579 770.357L460.519 745.297Z" fill="url(#paint38_linear_734_1901)"/>
<path d="M131.161 800.155L106.102 775.095C115.613 809.48 135.719 839.464 162.686 861.314C161.217 859.502 159.785 857.658 158.391 855.784C146.122 839.297 136.788 820.496 131.161 800.155Z" fill="#7D6EDE"/>
<path d="M131.161 800.155L106.102 775.095C115.613 809.48 135.719 839.464 162.686 861.314C161.217 859.502 159.785 857.658 158.391 855.784C146.122 839.297 136.788 820.496 131.161 800.155Z" fill="white" fill-opacity="0.1"/>
<path d="M192.167 101.533L217.227 126.593C226.227 128.418 234.656 131.816 242.215 136.488C231.254 118.755 213.283 105.814 192.167 101.533Z" fill="#7D6EDE"/>
<path d="M192.167 101.533L217.227 126.593C226.227 128.418 234.656 131.816 242.215 136.488C231.254 118.755 213.283 105.814 192.167 101.533Z" fill="white" fill-opacity="0.5"/>
<defs>
<linearGradient id="paint0_linear_734_1901" x1="17.0457" y1="-146.65" x2="1006.96" y2="853.726" gradientUnits="userSpaceOnUse">
<stop stop-color="#DBC4F5" stop-opacity="0.8"/>
<stop offset="0.35" stop-color="#DBC4F5"/>
<stop offset="0.65" stop-color="#7D6EDE"/>
<stop offset="1" stop-color="#4F4095"/>
</linearGradient>
<linearGradient id="paint1_linear_734_1901" x1="48.4803" y1="-161.937" x2="990.347" y2="808.155" gradientUnits="userSpaceOnUse">
<stop stop-color="#DBC4F5" stop-opacity="0.8"/>
<stop offset="0.35" stop-color="#DBC4F5"/>
<stop offset="1" stop-color="#7D6EDE"/>
</linearGradient>
<linearGradient id="paint2_linear_734_1901" x1="102.988" y1="100" x2="919.56" y2="875.113" gradientUnits="userSpaceOnUse">
<stop stop-color="#F5F5F5" stop-opacity="0.5"/>
<stop offset="1" stop-color="white" stop-opacity="0.1"/>
</linearGradient>
<linearGradient id="paint3_linear_734_1901" x1="48.4803" y1="-161.937" x2="990.347" y2="808.155" gradientUnits="userSpaceOnUse">
<stop stop-color="#DBC4F5" stop-opacity="0.8"/>
<stop offset="0.35" stop-color="#DBC4F5"/>
<stop offset="1" stop-color="#7D6EDE"/>
</linearGradient>
<linearGradient id="paint4_linear_734_1901" x1="102.988" y1="100" x2="919.56" y2="875.113" gradientUnits="userSpaceOnUse">
<stop stop-color="#F5F5F5" stop-opacity="0.5"/>
<stop offset="1" stop-color="white" stop-opacity="0.1"/>
</linearGradient>
<linearGradient id="paint5_linear_734_1901" x1="48.4803" y1="-161.937" x2="990.347" y2="808.155" gradientUnits="userSpaceOnUse">
<stop stop-color="#DBC4F5" stop-opacity="0.8"/>
<stop offset="0.35" stop-color="#DBC4F5"/>
<stop offset="1" stop-color="#7D6EDE"/>
</linearGradient>
<linearGradient id="paint6_linear_734_1901" x1="102.988" y1="100" x2="919.56" y2="875.113" gradientUnits="userSpaceOnUse">
<stop stop-color="#F5F5F5" stop-opacity="0.5"/>
<stop offset="1" stop-color="white" stop-opacity="0.1"/>
</linearGradient>
<linearGradient id="paint7_linear_734_1901" x1="48.4803" y1="-161.937" x2="990.347" y2="808.155" gradientUnits="userSpaceOnUse">
<stop stop-color="#DBC4F5" stop-opacity="0.8"/>
<stop offset="0.35" stop-color="#DBC4F5"/>
<stop offset="1" stop-color="#7D6EDE"/>
</linearGradient>
<linearGradient id="paint8_linear_734_1901" x1="102.988" y1="100" x2="919.56" y2="875.113" gradientUnits="userSpaceOnUse">
<stop stop-color="#F5F5F5" stop-opacity="0.5"/>
<stop offset="1" stop-color="white" stop-opacity="0.1"/>
</linearGradient>
<linearGradient id="paint9_linear_734_1901" x1="48.4803" y1="-161.937" x2="990.347" y2="808.155" gradientUnits="userSpaceOnUse">
<stop stop-color="#DBC4F5" stop-opacity="0.8"/>
<stop offset="0.35" stop-color="#DBC4F5"/>
<stop offset="1" stop-color="#7D6EDE"/>
</linearGradient>
<linearGradient id="paint10_linear_734_1901" x1="102.988" y1="100" x2="919.56" y2="875.113" gradientUnits="userSpaceOnUse">
<stop stop-color="#F5F5F5" stop-opacity="0.5"/>
<stop offset="1" stop-color="white" stop-opacity="0.1"/>
</linearGradient>
<linearGradient id="paint11_linear_734_1901" x1="48.4803" y1="-161.937" x2="990.347" y2="808.155" gradientUnits="userSpaceOnUse">
<stop stop-color="#DBC4F5" stop-opacity="0.8"/>
<stop offset="0.35" stop-color="#DBC4F5"/>
<stop offset="1" stop-color="#7D6EDE"/>
</linearGradient>
<linearGradient id="paint12_linear_734_1901" x1="102.988" y1="100" x2="919.56" y2="875.113" gradientUnits="userSpaceOnUse">
<stop stop-color="#F5F5F5" stop-opacity="0.5"/>
<stop offset="1" stop-color="white" stop-opacity="0.1"/>
</linearGradient>
<linearGradient id="paint13_linear_734_1901" x1="18.0704" y1="-147.954" x2="1005.83" y2="855.13" gradientUnits="userSpaceOnUse">
<stop offset="0.35" stop-color="#DBC4F5"/>
<stop offset="0.65" stop-color="#7D6EDE"/>
<stop offset="1" stop-color="#4F4095"/>
</linearGradient>
<linearGradient id="paint14_linear_734_1901" x1="103.173" y1="100" x2="920.829" y2="923.999" gradientUnits="userSpaceOnUse">
<stop stop-color="#F5F5F5" stop-opacity="0.5"/>
<stop offset="1" stop-color="white" stop-opacity="0.1"/>
</linearGradient>
<linearGradient id="paint15_linear_734_1901" x1="18.0704" y1="-147.954" x2="1005.83" y2="855.13" gradientUnits="userSpaceOnUse">
<stop offset="0.35" stop-color="#DBC4F5"/>
<stop offset="0.65" stop-color="#7D6EDE"/>
<stop offset="1" stop-color="#4F4095"/>
</linearGradient>
<linearGradient id="paint16_linear_734_1901" x1="103.173" y1="100" x2="920.829" y2="923.999" gradientUnits="userSpaceOnUse">
<stop stop-color="#F5F5F5" stop-opacity="0.5"/>
<stop offset="1" stop-color="white" stop-opacity="0.1"/>
</linearGradient>
<linearGradient id="paint17_linear_734_1901" x1="18.0704" y1="-147.954" x2="1005.83" y2="855.13" gradientUnits="userSpaceOnUse">
<stop offset="0.35" stop-color="#DBC4F5"/>
<stop offset="0.65" stop-color="#7D6EDE"/>
<stop offset="1" stop-color="#4F4095"/>
</linearGradient>
<linearGradient id="paint18_linear_734_1901" x1="103.173" y1="100" x2="920.829" y2="923.999" gradientUnits="userSpaceOnUse">
<stop stop-color="#F5F5F5" stop-opacity="0.5"/>
<stop offset="1" stop-color="white" stop-opacity="0.1"/>
</linearGradient>
<linearGradient id="paint19_linear_734_1901" x1="18.0704" y1="-147.954" x2="1005.83" y2="855.13" gradientUnits="userSpaceOnUse">
<stop offset="0.35" stop-color="#DBC4F5"/>
<stop offset="0.65" stop-color="#7D6EDE"/>
<stop offset="1" stop-color="#4F4095"/>
</linearGradient>
<linearGradient id="paint20_linear_734_1901" x1="103.173" y1="100" x2="920.829" y2="923.999" gradientUnits="userSpaceOnUse">
<stop stop-color="#F5F5F5" stop-opacity="0.5"/>
<stop offset="1" stop-color="white" stop-opacity="0.1"/>
</linearGradient>
<linearGradient id="paint21_linear_734_1901" x1="18.0704" y1="-147.954" x2="1005.83" y2="855.13" gradientUnits="userSpaceOnUse">
<stop offset="0.35" stop-color="#DBC4F5"/>
<stop offset="0.65" stop-color="#7D6EDE"/>
<stop offset="1" stop-color="#4F4095"/>
</linearGradient>
<linearGradient id="paint22_linear_734_1901" x1="103.173" y1="100" x2="920.829" y2="923.999" gradientUnits="userSpaceOnUse">
<stop stop-color="#F5F5F5" stop-opacity="0.5"/>
<stop offset="1" stop-color="white" stop-opacity="0.1"/>
</linearGradient>
<linearGradient id="paint23_linear_734_1901" x1="18.0704" y1="-147.954" x2="1005.83" y2="855.13" gradientUnits="userSpaceOnUse">
<stop offset="0.35" stop-color="#DBC4F5"/>
<stop offset="0.65" stop-color="#7D6EDE"/>
<stop offset="1" stop-color="#4F4095"/>
</linearGradient>
<linearGradient id="paint24_linear_734_1901" x1="103.173" y1="100" x2="920.829" y2="923.999" gradientUnits="userSpaceOnUse">
<stop stop-color="#F5F5F5" stop-opacity="0.5"/>
<stop offset="1" stop-color="white" stop-opacity="0.1"/>
</linearGradient>
<linearGradient id="paint25_linear_734_1901" x1="18.0704" y1="-147.954" x2="1005.83" y2="855.13" gradientUnits="userSpaceOnUse">
<stop offset="0.35" stop-color="#DBC4F5"/>
<stop offset="0.65" stop-color="#7D6EDE"/>
<stop offset="1" stop-color="#4F4095"/>
</linearGradient>
<linearGradient id="paint26_linear_734_1901" x1="103.173" y1="100" x2="920.829" y2="923.999" gradientUnits="userSpaceOnUse">
<stop stop-color="#F5F5F5" stop-opacity="0.5"/>
<stop offset="1" stop-color="white" stop-opacity="0.1"/>
</linearGradient>
<linearGradient id="paint27_linear_734_1901" x1="18.0704" y1="-147.954" x2="1005.83" y2="855.13" gradientUnits="userSpaceOnUse">
<stop offset="0.35" stop-color="#DBC4F5"/>
<stop offset="0.65" stop-color="#7D6EDE"/>
<stop offset="1" stop-color="#4F4095"/>
</linearGradient>
<linearGradient id="paint28_linear_734_1901" x1="103.173" y1="100" x2="920.829" y2="923.999" gradientUnits="userSpaceOnUse">
<stop stop-color="#F5F5F5" stop-opacity="0.5"/>
<stop offset="1" stop-color="white" stop-opacity="0.1"/>
</linearGradient>
<linearGradient id="paint29_linear_734_1901" x1="18.0704" y1="-147.954" x2="1005.83" y2="855.13" gradientUnits="userSpaceOnUse">
<stop offset="0.35" stop-color="#DBC4F5"/>
<stop offset="0.65" stop-color="#7D6EDE"/>
<stop offset="1" stop-color="#4F4095"/>
</linearGradient>
<linearGradient id="paint30_linear_734_1901" x1="103.173" y1="100" x2="920.829" y2="923.999" gradientUnits="userSpaceOnUse">
<stop stop-color="#F5F5F5" stop-opacity="0.5"/>
<stop offset="1" stop-color="white" stop-opacity="0.1"/>
</linearGradient>
<linearGradient id="paint31_linear_734_1901" x1="18.0704" y1="-147.954" x2="1005.83" y2="855.13" gradientUnits="userSpaceOnUse">
<stop offset="0.35" stop-color="#DBC4F5"/>
<stop offset="0.65" stop-color="#7D6EDE"/>
<stop offset="1" stop-color="#4F4095"/>
</linearGradient>
<linearGradient id="paint32_linear_734_1901" x1="103.173" y1="100" x2="920.829" y2="923.999" gradientUnits="userSpaceOnUse">
<stop stop-color="#F5F5F5" stop-opacity="0.5"/>
<stop offset="1" stop-color="white" stop-opacity="0.1"/>
</linearGradient>
<linearGradient id="paint33_linear_734_1901" x1="18.0704" y1="-147.954" x2="1005.83" y2="855.13" gradientUnits="userSpaceOnUse">
<stop offset="0.35" stop-color="#DBC4F5"/>
<stop offset="0.65" stop-color="#7D6EDE"/>
<stop offset="1" stop-color="#4F4095"/>
</linearGradient>
<linearGradient id="paint34_linear_734_1901" x1="103.173" y1="100" x2="920.829" y2="923.999" gradientUnits="userSpaceOnUse">
<stop stop-color="#F5F5F5" stop-opacity="0.5"/>
<stop offset="1" stop-color="white" stop-opacity="0.1"/>
</linearGradient>
<linearGradient id="paint35_linear_734_1901" x1="18.0704" y1="-147.954" x2="1005.83" y2="855.13" gradientUnits="userSpaceOnUse">
<stop offset="0.35" stop-color="#DBC4F5"/>
<stop offset="0.65" stop-color="#7D6EDE"/>
<stop offset="1" stop-color="#4F4095"/>
</linearGradient>
<linearGradient id="paint36_linear_734_1901" x1="103.173" y1="100" x2="920.829" y2="923.999" gradientUnits="userSpaceOnUse">
<stop stop-color="#F5F5F5" stop-opacity="0.5"/>
<stop offset="1" stop-color="white" stop-opacity="0.1"/>
</linearGradient>
<linearGradient id="paint37_linear_734_1901" x1="18.0704" y1="-147.954" x2="1005.83" y2="855.13" gradientUnits="userSpaceOnUse">
<stop offset="0.35" stop-color="#DBC4F5"/>
<stop offset="0.65" stop-color="#7D6EDE"/>
<stop offset="1" stop-color="#4F4095"/>
</linearGradient>
<linearGradient id="paint38_linear_734_1901" x1="103.173" y1="100" x2="920.829" y2="923.999" gradientUnits="userSpaceOnUse">
<stop stop-color="#F5F5F5" stop-opacity="0.5"/>
<stop offset="1" stop-color="white" stop-opacity="0.1"/>
</linearGradient>
</defs>
</svg>
